<svg width="18" height="18" viewBox="0 0 18 18" fill="none" xmlns="http://www.w3.org/2000/svg">
<path d="M1.11402 8.5874C1.11402 5.92904 1.11402 4.59986 1.63137 3.5845C2.08645 2.69137 2.81259 1.96523 3.70572 1.51015C4.72109 0.992798 6.05027 0.992798 8.70863 0.992798H9.34152C11.9999 0.992798 13.3291 0.992798 14.3444 1.51015C15.2376 1.96523 15.9637 2.69137 16.4188 3.5845C16.9361 4.59986 16.9361 5.92905 16.9361 8.58741V9.2203C16.9361 11.8787 16.9361 13.2078 16.4188 14.2232C15.9637 15.1163 15.2376 15.8425 14.3444 16.2976C13.3291 16.8149 11.9999 16.8149 9.34151 16.8149H8.70863C6.05027 16.8149 4.72109 16.8149 3.70572 16.2976C2.81259 15.8425 2.08645 15.1163 1.63137 14.2232C1.11402 13.2078 1.11402 11.8787 1.11402 9.22029V8.5874Z" fill="white" stroke="#E8E8E8" stroke-width="1.58221"/>
</svg>
