<svg width="31" height="32" viewBox="0 0 31 32" fill="none" xmlns="http://www.w3.org/2000/svg">
<g filter="url(#filter0_d_434_59)">
<path d="M7.323 12.5466C7.323 9.88827 7.323 8.55909 7.84036 7.54373C8.29543 6.6506 9.02157 5.92445 9.91471 5.46938C10.9301 4.95203 12.2593 4.95203 14.9176 4.95203L15.5505 4.95203C18.2089 4.95203 19.538 4.95203 20.5534 5.46938C21.4465 5.92445 22.1727 6.6506 22.6278 7.54373C23.1451 8.55909 23.1451 9.88827 23.1451 12.5466V13.1795C23.1451 15.8379 23.1451 17.1671 22.6278 18.1824C22.1727 19.0756 21.4465 19.8017 20.5534 20.2568C19.538 20.7741 18.2089 20.7741 15.5505 20.7741H14.9176C12.2592 20.7741 10.9301 20.7741 9.91471 20.2568C9.02157 19.8017 8.29543 19.0756 7.84036 18.1824C7.323 17.1671 7.323 15.8379 7.323 13.1795L7.323 12.5466Z" fill="#262626"/>
<path d="M7.323 12.5466C7.323 9.88827 7.323 8.55909 7.84036 7.54373C8.29543 6.6506 9.02157 5.92445 9.91471 5.46938C10.9301 4.95203 12.2593 4.95203 14.9176 4.95203L15.5505 4.95203C18.2089 4.95203 19.538 4.95203 20.5534 5.46938C21.4465 5.92445 22.1727 6.6506 22.6278 7.54373C23.1451 8.55909 23.1451 9.88827 23.1451 12.5466V13.1795C23.1451 15.8379 23.1451 17.1671 22.6278 18.1824C22.1727 19.0756 21.4465 19.8017 20.5534 20.2568C19.538 20.7741 18.2089 20.7741 15.5505 20.7741H14.9176C12.2592 20.7741 10.9301 20.7741 9.91471 20.2568C9.02157 19.8017 8.29543 19.0756 7.84036 18.1824C7.323 17.1671 7.323 15.8379 7.323 13.1795L7.323 12.5466Z" stroke="#262626" stroke-width="1.58221"/>
</g>
<path fill-rule="evenodd" clip-rule="evenodd" d="M20.54 9.13934C20.6883 9.28769 20.7716 9.48888 20.7716 9.69865C20.7716 9.90842 20.6883 10.1096 20.54 10.258L14.2112 16.5868C14.0628 16.7351 13.8616 16.8184 13.6519 16.8184C13.4421 16.8184 13.2409 16.7351 13.0925 16.5868L9.92813 13.4224C9.78402 13.2732 9.70428 13.0733 9.70608 12.8659C9.70789 12.6585 9.79109 12.4601 9.93776 12.3134C10.0844 12.1667 10.2829 12.0835 10.4903 12.0817C10.6977 12.0799 10.8975 12.1597 11.0467 12.3038L13.6519 14.9089L19.4214 9.13934C19.5697 8.99103 19.7709 8.90771 19.9807 8.90771C20.1905 8.90771 20.3917 8.99103 20.54 9.13934Z" fill="#FAFAFA"/>
<defs>
<filter id="filter0_d_434_59" x="0.203141" y="0.996468" width="30.062" height="30.062" filterUnits="userSpaceOnUse" color-interpolation-filters="sRGB">
<feFlood flood-opacity="0" result="BackgroundImageFix"/>
<feColorMatrix in="SourceAlpha" type="matrix" values="0 0 0 0 0 0 0 0 0 0 0 0 0 0 0 0 0 0 127 0" result="hardAlpha"/>
<feOffset dy="3.16442"/>
<feGaussianBlur stdDeviation="3.16442"/>
<feComposite in2="hardAlpha" operator="out"/>
<feColorMatrix type="matrix" values="0 0 0 0 0 0 0 0 0 0 0 0 0 0 0 0 0 0 0.04 0"/>
<feBlend mode="normal" in2="BackgroundImageFix" result="effect1_dropShadow_434_59"/>
<feBlend mode="normal" in="SourceGraphic" in2="effect1_dropShadow_434_59" result="shape"/>
</filter>
</defs>
</svg>
